<svg width="67" height="65" viewBox="0 0 67 65" fill="none" xmlns="http://www.w3.org/2000/svg">
<mask id="path-1-inside-1_14_136" fill="white">
<path fill-rule="evenodd" clip-rule="evenodd" d="M24.8107 10.875C24.1275 10.875 23.4916 11.2237 23.1244 11.7997L18.3734 19.25H8C3.58172 19.25 0 22.8317 0 27.25V53.125C0 57.5433 3.58172 61.125 8 61.125H59C63.4183 61.125 67 57.5433 67 53.125V27.25C67 22.8317 63.4183 19.25 59 19.25H47.7466L43.3219 11.8488C42.9609 11.2448 42.309 10.875 41.6053 10.875H24.8107Z"/>
</mask>
<path fill-rule="evenodd" clip-rule="evenodd" d="M24.8107 10.875C24.1275 10.875 23.4916 11.2237 23.1244 11.7997L18.3734 19.25H8C3.58172 19.25 0 22.8317 0 27.25V53.125C0 57.5433 3.58172 61.125 8 61.125H59C63.4183 61.125 67 57.5433 67 53.125V27.25C67 22.8317 63.4183 19.25 59 19.25H47.7466L43.3219 11.8488C42.9609 11.2448 42.309 10.875 41.6053 10.875H24.8107Z" fill="#FCE068"/>
<path d="M23.1244 11.7997L24.8107 12.875V12.875L23.1244 11.7997ZM18.3734 19.25V21.25H19.4701L20.0597 20.3253L18.3734 19.25ZM47.7466 19.25L46.03 20.2762L46.6121 21.25H47.7466V19.25ZM43.3219 11.8488L41.6053 12.875L41.6053 12.875L43.3219 11.8488ZM24.8107 12.875V12.875V8.875C23.4444 8.875 22.1726 9.57235 21.438 10.7243L24.8107 12.875ZM20.0597 20.3253L24.8107 12.875L21.438 10.7243L16.6871 18.1747L20.0597 20.3253ZM8 21.25H18.3734V17.25H8V21.25ZM2 27.25C2 23.9363 4.68629 21.25 8 21.25V17.25C2.47715 17.25 -2 21.7272 -2 27.25H2ZM2 53.125V27.25H-2V53.125H2ZM8 59.125C4.68629 59.125 2 56.4387 2 53.125H-2C-2 58.6478 2.47715 63.125 8 63.125V59.125ZM59 59.125H8V63.125H59V59.125ZM65 53.125C65 56.4387 62.3137 59.125 59 59.125V63.125C64.5229 63.125 69 58.6478 69 53.125H65ZM65 27.25V53.125H69V27.25H65ZM59 21.25C62.3137 21.25 65 23.9363 65 27.25H69C69 21.7272 64.5229 17.25 59 17.25V21.25ZM47.7466 21.25H59V17.25H47.7466V21.25ZM41.6053 12.875L46.03 20.2762L49.4632 18.2238L45.0386 10.8225L41.6053 12.875ZM41.6053 12.875L41.6053 12.875L45.0386 10.8225C44.3164 9.61457 43.0126 8.875 41.6053 8.875V12.875ZM24.8107 12.875H41.6053V8.875H24.8107V12.875Z" fill="black" mask="url(#path-1-inside-1_14_136)"/>
<path d="M46 28C51.3677 28 56.9032 28 59 28" stroke="black" stroke-width="3" stroke-linecap="round" stroke-linejoin="bevel"/>
<circle cx="32.5" cy="39.5" r="11" fill="white" stroke="black"/>
</svg>
