<svg width="67" height="65" viewBox="0 0 67 65" fill="none" xmlns="http://www.w3.org/2000/svg">
<path d="M48 53C48 53.1829 47.8622 53.579 47.065 54.1176C46.3027 54.6325 45.1338 55.1357 43.5996 55.574C40.5449 56.4468 36.2667 57 31.5 57C26.7333 57 22.4551 56.4468 19.4004 55.574C17.8662 55.1357 16.6973 54.6325 15.935 54.1176C15.1378 53.579 15 53.1829 15 53C15 52.8171 15.1378 52.421 15.935 51.8824C16.6973 51.3675 17.8662 50.8643 19.4004 50.426C22.4551 49.5532 26.7333 49 31.5 49C36.2667 49 40.5449 49.5532 43.5996 50.426C45.1338 50.8643 46.3027 51.3675 47.065 51.8824C47.8622 52.421 48 52.8171 48 53Z" stroke="black" stroke-width="2"/>
<path d="M31.6466 4.0842L31.7301 4.09095L31.8135 4.08373C38.0674 3.54251 42.0564 5.87099 44.5184 9.02625C46.997 12.2027 47.9791 16.2909 47.9997 19.3407C47.3157 22.7163 45.4167 29.2304 42.5235 35.514C41.0641 38.6835 39.3639 41.7679 37.4568 44.3517C35.6791 46.7602 33.7589 48.683 31.7338 49.8562C29.9136 48.7662 28.0779 46.9176 26.3051 44.5587C24.393 42.0144 22.6057 38.9464 21.0323 35.7732C17.9058 29.4679 15.6818 22.8671 15.0002 19.345C15.0159 15.8889 15.9018 11.8139 18.3594 8.75181C20.7934 5.71923 24.8829 3.53662 31.6466 4.0842Z" fill="#FCE068" stroke="black" stroke-width="2"/>
<path d="M37 17C37 19.6224 34.4639 22 31 22C27.5361 22 25 19.6224 25 17C25 14.3776 27.5361 12 31 12C34.4639 12 37 14.3776 37 17Z" fill="white" stroke="black" stroke-width="2"/>
</svg>
