<svg width="67" height="65" viewBox="0 0 67 65" fill="none" xmlns="http://www.w3.org/2000/svg">
<path d="M17 27C17 22.0294 21.0294 18 26 18H41C45.9706 18 50 22.0294 50 27V52C50 56.9706 45.9706 61 41 61H26C21.0294 61 17 56.9706 17 52V27Z" fill="#FCE068" stroke="black" stroke-width="2"/>
<path d="M26 7C26 5.34315 27.3431 4 29 4H37C38.6569 4 40 5.34315 40 7V18H26V7Z" stroke="black" stroke-width="2"/>
<path d="M24 30.5C24 38.9 24 46 24 48.5M32.5 34.5C32.5 42.9 32.5 50 32.5 52.5M41 30.5C41 38.9 41 46 41 48.5" stroke="white"/>
</svg>
