<svg width="35" height="36" viewBox="0 0 35 36" fill="none" xmlns="http://www.w3.org/2000/svg">
<path d="M15.385 5.39453C15.3906 5.39987 15.4404 5.45073 15.4316 5.64438C15.423 5.83618 15.357 6.10327 15.2139 6.43468C14.9294 7.09356 14.3841 7.90533 13.6349 8.69628C12.8857 9.48722 12.1047 10.0757 11.4622 10.3955C11.139 10.5563 10.8759 10.6366 10.6849 10.6557C10.492 10.6749 10.4385 10.628 10.4329 10.6227C10.4272 10.6173 10.3774 10.5665 10.3862 10.3728C10.3949 10.181 10.4608 9.91391 10.6039 9.5825C10.8884 8.92362 11.4337 8.11185 12.1829 7.32091C12.9321 6.52996 13.7131 5.94149 14.3556 5.62171C14.6788 5.46086 14.9419 5.38055 15.133 5.36149C15.3259 5.34225 15.3794 5.38919 15.385 5.39453Z" fill="#FCE068" stroke="black"/>
<path d="M29.385 19.3945C29.3906 19.3999 29.4404 19.4507 29.4316 19.6444C29.423 19.8362 29.357 20.1033 29.2139 20.4347C28.9294 21.0936 28.3841 21.9053 27.6349 22.6963C26.8857 23.4872 26.1047 24.0757 25.4622 24.3955C25.139 24.5563 24.8759 24.6366 24.6849 24.6557C24.492 24.6749 24.4385 24.628 24.4329 24.6227C24.4272 24.6173 24.3774 24.5665 24.3862 24.3728C24.3949 24.181 24.4608 23.9139 24.6039 23.5825C24.8884 22.9236 25.4337 22.1119 26.1829 21.3209C26.9321 20.53 27.7131 19.9415 28.3556 19.6217C28.6788 19.4609 28.9419 19.3806 29.133 19.3615C29.3259 19.3422 29.3794 19.3892 29.385 19.3945Z" fill="#FCE068" stroke="black"/>
<mask id="path-3-inside-1_14_211" fill="white">
<path fill-rule="evenodd" clip-rule="evenodd" d="M27.8971 4.8044C27.9651 4.91983 28.0081 5.0457 28.0259 5.17441C28.4659 5.16767 28.8129 5.27496 29.0525 5.50574C29.2621 5.7076 29.3803 5.99507 29.4132 6.35842C29.5146 6.37595 29.6139 6.40925 29.7075 6.4584L33.8678 8.64291C34.7822 9.12306 34.4572 10.5055 33.4247 10.528L27.9973 10.6465C26.676 13.0911 24.4969 16.1546 21.7182 19.4169L33.7408 26.5932C34.66 27.1418 34.1908 28.5562 33.1259 28.4466L14.9201 26.573C8.12002 33.0074 1.94065 36.7986 0.370306 35.2862C-1.17083 33.8019 2.22594 27.6896 8.1891 20.8112L6.38299 1.99031C6.28062 0.92362 7.70049 0.464901 8.24157 1.38986L15.3068 13.4676C18.4258 10.5908 21.3784 8.30167 23.77 6.86344L23.6193 1.23422C23.5916 0.201789 24.9567 -0.189901 25.4807 0.700105L27.8971 4.8044Z"/>
</mask>
<path fill-rule="evenodd" clip-rule="evenodd" d="M27.8971 4.8044C27.9651 4.91983 28.0081 5.0457 28.0259 5.17441C28.4659 5.16767 28.8129 5.27496 29.0525 5.50574C29.2621 5.7076 29.3803 5.99507 29.4132 6.35842C29.5146 6.37595 29.6139 6.40925 29.7075 6.4584L33.8678 8.64291C34.7822 9.12306 34.4572 10.5055 33.4247 10.528L27.9973 10.6465C26.676 13.0911 24.4969 16.1546 21.7182 19.4169L33.7408 26.5932C34.66 27.1418 34.1908 28.5562 33.1259 28.4466L14.9201 26.573C8.12002 33.0074 1.94065 36.7986 0.370306 35.2862C-1.17083 33.8019 2.22594 27.6896 8.1891 20.8112L6.38299 1.99031C6.28062 0.92362 7.70049 0.464901 8.24157 1.38986L15.3068 13.4676C18.4258 10.5908 21.3784 8.30167 23.77 6.86344L23.6193 1.23422C23.5916 0.201789 24.9567 -0.189901 25.4807 0.700105L27.8971 4.8044Z" fill="#62C6BB"/>
<path d="M28.0259 5.17441L27.0353 5.31165L27.1567 6.18784L28.0412 6.17429L28.0259 5.17441ZM27.8971 4.8044L28.7588 4.29705V4.29704L27.8971 4.8044ZM29.0525 5.50574L29.7462 4.78548V4.78547L29.0525 5.50574ZM29.4132 6.35842L28.4173 6.44858L28.4865 7.21293L29.2427 7.34378L29.4132 6.35842ZM29.7075 6.4584L30.1724 5.57304L30.1724 5.57304L29.7075 6.4584ZM33.8678 8.64291L33.4029 9.52828L33.4029 9.52828L33.8678 8.64291ZM33.4247 10.528L33.4465 11.5278L33.4247 10.528ZM27.9973 10.6465L27.9755 9.64674L27.3941 9.65943L27.1176 10.171L27.9973 10.6465ZM21.7182 19.4169L20.9569 18.7684L20.1897 19.6691L21.2057 20.2755L21.7182 19.4169ZM33.7408 26.5932L33.2283 27.4518L33.7408 26.5932ZM33.1259 28.4466L33.2283 27.4518L33.1259 28.4466ZM14.9201 26.573L15.0224 25.5783L14.566 25.5313L14.2328 25.8467L14.9201 26.573ZM0.370306 35.2862L-0.323395 36.0064H-0.323394L0.370306 35.2862ZM8.1891 20.8112L8.94469 21.4663L9.22548 21.1424L9.18453 20.7157L8.1891 20.8112ZM6.38299 1.99031L7.37841 1.89479V1.89479L6.38299 1.99031ZM8.24157 1.38986L7.37841 1.89479L7.37841 1.89479L8.24157 1.38986ZM15.3068 13.4676L14.4437 13.9725L15.0712 15.0453L15.9848 14.2027L15.3068 13.4676ZM23.77 6.86344L24.2853 7.72042L24.7853 7.4198L24.7696 6.83668L23.77 6.86344ZM23.6193 1.23422L22.6196 1.26099V1.26099L23.6193 1.23422ZM25.4807 0.700105L26.3424 0.19275L26.3424 0.19275L25.4807 0.700105ZM29.0164 5.03717C28.9807 4.77969 28.8947 4.52778 28.7588 4.29705L27.0354 5.31175L27.0353 5.31165L29.0164 5.03717ZM29.7462 4.78547C29.2529 4.3104 28.611 4.16534 28.0106 4.17453L28.0412 6.17429C28.1786 6.17219 28.2636 6.18876 28.3101 6.20361C28.3325 6.21076 28.3452 6.21723 28.3511 6.22064C28.3566 6.22386 28.3584 6.22568 28.3588 6.226L29.7462 4.78547ZM30.4092 6.26825C30.3613 5.74012 30.1763 5.19978 29.7462 4.78548L28.3588 6.226C28.3592 6.2264 28.3606 6.22776 28.3631 6.23149C28.3657 6.23539 28.3709 6.24383 28.3772 6.25887C28.3902 6.28974 28.4083 6.34908 28.4173 6.44858L30.4092 6.26825ZM29.2427 7.34378L29.2426 7.34377L30.1724 5.57304C29.9854 5.47481 29.7865 5.40815 29.5837 5.37306L29.2427 7.34378ZM29.2426 7.34377L33.4029 9.52828L34.3327 7.75755L30.1724 5.57304L29.2426 7.34377ZM33.4029 9.52828V9.52828L33.4465 11.5278C35.5116 11.4827 36.1615 8.71785 34.3327 7.75755L33.4029 9.52828ZM33.4029 9.52828L27.9755 9.64674L28.0191 11.6463L33.4465 11.5278L33.4029 9.52828ZM22.4795 20.0653C25.2846 16.7721 27.5108 13.6496 28.877 11.122L27.1176 10.171C25.8411 12.5326 23.7093 15.5372 20.9569 18.7684L22.4795 20.0653ZM34.2533 25.7345L22.2307 18.5582L21.2057 20.2755L33.2283 27.4518L34.2533 25.7345ZM33.0235 29.4413C35.1534 29.6605 36.0918 26.8319 34.2533 25.7345L33.2283 27.4518L33.2283 27.4518L33.0235 29.4413ZM14.8177 27.5678L33.0235 29.4413L33.2283 27.4518L15.0224 25.5783L14.8177 27.5678ZM-0.323394 36.0064C0.477756 36.778 1.64571 36.692 2.60917 36.4334C3.64629 36.1551 4.87071 35.5681 6.20057 34.7659C8.87394 33.1533 12.1765 30.5458 15.6074 27.2994L14.2328 25.8467C10.8636 29.0346 7.67644 31.5399 5.16752 33.0534C3.90625 33.8142 2.86638 34.2936 2.09071 34.5018C1.70365 34.6057 1.43007 34.6288 1.25286 34.6136C1.16808 34.6063 1.11775 34.5913 1.09199 34.5809C1.07936 34.5758 1.07221 34.5717 1.06888 34.5695C1.06568 34.5675 1.06444 34.5663 1.06401 34.5659L-0.323394 36.0064ZM7.43351 20.1562C4.42459 23.6269 2.0357 26.9347 0.587449 29.5931C-0.132912 30.9154 -0.649434 32.1289 -0.873557 33.1515C-1.08253 34.1049 -1.11058 35.2483 -0.323395 36.0064L1.06401 34.5659C1.06357 34.5655 1.06239 34.5643 1.06032 34.5614C1.05817 34.5583 1.05396 34.5517 1.0486 34.5399C1.03768 34.5159 1.02118 34.4687 1.01046 34.3882C0.988031 34.2197 0.997461 33.9565 1.08007 33.5796C1.24575 32.8237 1.66215 31.801 2.34374 30.5499C3.69938 28.0615 5.99045 24.8739 8.94469 21.4663L7.43351 20.1562ZM5.38756 2.08584L7.19368 20.9067L9.18453 20.7157L7.37841 1.89479L5.38756 2.08584ZM9.10473 0.884924C8.02257 -0.964986 5.18283 -0.047549 5.38756 2.08584L7.37841 1.89479L7.37841 1.89479L9.10473 0.884924ZM16.17 12.9627L9.10473 0.884924L7.37841 1.89479L14.4437 13.9725L16.17 12.9627ZM23.2546 6.00647C20.7854 7.49138 17.7778 9.82808 14.6288 12.7325L15.9848 14.2027C19.0739 11.3534 21.9714 9.11197 24.2853 7.72042L23.2546 6.00647ZM22.6196 1.26099L22.7704 6.89021L24.7696 6.83668L24.6189 1.20746L22.6196 1.26099ZM26.3424 0.19275C25.2944 -1.58726 22.5644 -0.803882 22.6196 1.26099L24.6189 1.20746L24.6189 1.20746L26.3424 0.19275ZM28.7588 4.29704L26.3424 0.19275L24.6189 1.20746L27.0354 5.31175L28.7588 4.29704Z" fill="black" mask="url(#path-3-inside-1_14_211)"/>
</svg>
