<svg width="50" height="49" viewBox="0 0 50 49" fill="none" xmlns="http://www.w3.org/2000/svg">
<path d="M22.8475 5.66249C23.457 3.8427 26.0309 3.84269 26.6404 5.66248L29.8422 15.2224C30.1153 16.0377 30.8788 16.5873 31.7387 16.5873H41.9679C43.92 16.5873 44.7157 19.0973 43.1201 20.222L34.9498 25.9809C34.2275 26.49 33.925 27.4128 34.2056 28.2508L37.3508 37.6418C37.9644 39.4738 35.8813 41.0247 34.3021 39.9117L25.8962 33.9867C25.2052 33.4997 24.2827 33.4997 23.5917 33.9867L15.1858 39.9117C13.6066 41.0247 11.5235 39.4738 12.1371 37.6418L15.2823 28.2508C15.5629 27.4128 15.2604 26.49 14.5381 25.9809L6.36776 20.222C4.77219 19.0973 5.56791 16.5873 7.52 16.5873H17.7492C18.609 16.5873 19.3726 16.0377 19.6457 15.2224L22.8475 5.66249Z" fill="#FCE068"/>
</svg>
